<?xml version="1.0" encoding="utf-8"?>
<!-- Generator: Adobe Illustrator 24.3.0, SVG Export Plug-In . SVG Version: 6.00 Build 0)  -->
<svg version="1.1" xmlns="http://www.w3.org/2000/svg" xmlns:xlink="http://www.w3.org/1999/xlink" x="0px" y="0px"
	 viewBox="0 0 400 155" style="enable-background:new 0 0 400 155;" xml:space="preserve">
<style type="text/css">
	.st0{fill:none;}
	.st1{font-family:'FrederickatheGreat-Regular';}
	.st2{font-size:72px;}
	.st3{fill:#2D2D2D;}
</style>
<g id="Layer_3">
	
		<image style="overflow:visible;" width="4000" height="6000" xlink:href="../../../../pineapple.jpg"  transform="matrix(4.067220e-02 0 0 2.071869e-02 224.6886 4.4291)">
	</image>
</g>
<g id="Styles">
	<rect x="75.4" y="74.8" class="st0" width="290.3" height="76.3"/>
	<text transform="matrix(1 0 0 1 75.4016 128.7411)" class="st1 st2">Styles </text>
</g>
<g id="Simple">
	<g>
		<rect x="5.8" y="4.7" class="st0" width="260" height="79.6"/>
		<text id="SIMPLE" transform="matrix(1 0 0 1 5.812 58.5829)" class="st1 st2">Simple </text>
		<g>
			<path class="st3" d="M225.8,154.5l8.5-20.7h2.2l8.5,20.7h-2.8l-2.4-6.1H231l-2.4,6.1L225.8,154.5L225.8,154.5z M235.4,136.8
				l-3.8,9.6h7.6L235.4,136.8z"/>
			<path class="st3" d="M247.7,154.5v-20.7h8.6c0.9,0,1.8,0.2,2.5,0.6c0.8,0.4,1.4,0.9,2,1.5c0.5,0.6,1,1.3,1.3,2.1
				c0.3,0.8,0.5,1.6,0.5,2.4c0,0.9-0.2,1.7-0.4,2.5c-0.3,0.8-0.7,1.5-1.2,2.1c-0.5,0.6-1.2,1.1-1.9,1.5c-0.8,0.4-1.6,0.5-2.5,0.5
				h-6.2v7.4H247.7z M250.4,144.7h6c0.5,0,1-0.1,1.5-0.3c0.4-0.2,0.8-0.5,1.1-0.9c0.3-0.4,0.6-0.9,0.7-1.4c0.2-0.5,0.3-1.1,0.3-1.7
				c0-0.6-0.1-1.2-0.3-1.7c-0.2-0.5-0.5-1-0.8-1.4c-0.3-0.4-0.7-0.7-1.2-0.9c-0.5-0.2-0.9-0.3-1.4-0.3h-5.9L250.4,144.7L250.4,144.7
				z"/>
			<path class="st3" d="M265.8,154.5v-20.7h8.6c0.9,0,1.8,0.2,2.5,0.6c0.8,0.4,1.4,0.9,2,1.5c0.5,0.6,1,1.3,1.3,2.1
				c0.3,0.8,0.5,1.6,0.5,2.4c0,0.9-0.2,1.7-0.4,2.5c-0.3,0.8-0.7,1.5-1.2,2.1c-0.5,0.6-1.2,1.1-1.9,1.5c-0.8,0.4-1.6,0.5-2.5,0.5
				h-6.2v7.4H265.8z M268.5,144.7h6c0.5,0,1-0.1,1.5-0.3c0.4-0.2,0.8-0.5,1.1-0.9c0.3-0.4,0.6-0.9,0.7-1.4s0.3-1.1,0.3-1.7
				c0-0.6-0.1-1.2-0.3-1.7c-0.2-0.5-0.5-1-0.8-1.4c-0.3-0.4-0.7-0.7-1.2-0.9c-0.5-0.2-0.9-0.3-1.4-0.3h-5.9L268.5,144.7L268.5,144.7
				z"/>
			<path class="st3" d="M280.4,154.5l8.5-20.7h2.2l8.5,20.7h-2.8l-2.4-6.1h-8.7l-2.4,6.1L280.4,154.5L280.4,154.5z M290,136.8
				l-3.8,9.6h7.6L290,136.8z"/>
			<path class="st3" d="M302.3,154.5v-20.7h8.9c0.9,0,1.8,0.2,2.5,0.6c0.8,0.4,1.4,0.9,2,1.5c0.6,0.6,1,1.3,1.3,2.1
				c0.3,0.8,0.5,1.6,0.5,2.4c0,0.7-0.1,1.4-0.3,2.1c-0.2,0.7-0.5,1.3-0.9,1.8c-0.4,0.5-0.8,1-1.4,1.4c-0.5,0.4-1.1,0.7-1.8,0.8
				l5,7.9h-3l-4.7-7.4h-5.5v7.4H302.3z M304.9,144.7h6.3c0.5,0,1-0.1,1.5-0.4c0.4-0.2,0.8-0.6,1.1-1c0.3-0.4,0.6-0.9,0.7-1.4
				c0.2-0.5,0.3-1.1,0.3-1.6s-0.1-1.1-0.3-1.6c-0.2-0.5-0.5-1-0.8-1.4c-0.3-0.4-0.7-0.7-1.2-0.9c-0.4-0.2-0.9-0.3-1.4-0.3h-6.1
				L304.9,144.7L304.9,144.7z"/>
			<path class="st3" d="M335.7,152.2v2.3h-14.1v-20.7h13.8v2.3h-11.2v6.7h9.7v2.2h-9.7v7.1L335.7,152.2L335.7,152.2z"/>
			<path class="st3" d="M339.5,154.5v-20.7h2.6v18.4h11.5v2.3L339.5,154.5L339.5,154.5z"/>
			<path class="st3" d="M361.9,144c0-1.2,0.2-2.5,0.7-3.7c0.4-1.2,1.1-2.3,1.9-3.3c0.8-1,1.9-1.8,3.1-2.4c1.2-0.6,2.6-0.9,4.2-0.9
				c1.8,0,3.4,0.4,4.8,1.2c1.3,0.8,2.3,1.9,2.9,3.3l-2.1,1.3c-0.3-0.7-0.7-1.2-1.1-1.6c-0.4-0.5-0.9-0.8-1.4-1.1
				c-0.5-0.3-1-0.5-1.6-0.6c-0.5-0.1-1.1-0.2-1.6-0.2c-1.2,0-2.2,0.2-3.1,0.7c-0.9,0.5-1.6,1.1-2.2,1.9c-0.6,0.8-1.1,1.6-1.4,2.6
				c-0.3,1-0.4,1.9-0.4,2.9c0,1.1,0.2,2.1,0.5,3.1c0.4,1,0.9,1.8,1.5,2.6c0.7,0.7,1.4,1.4,2.3,1.8c0.9,0.5,1.8,0.7,2.9,0.7
				c0.5,0,1.1-0.1,1.7-0.2c0.6-0.1,1.1-0.4,1.6-0.7c0.5-0.3,1-0.7,1.5-1.1c0.4-0.4,0.8-1,1.1-1.7l2.2,1.2c-0.3,0.8-0.8,1.4-1.4,2
				c-0.6,0.6-1.3,1.1-2,1.5c-0.7,0.4-1.5,0.7-2.4,0.9c-0.8,0.2-1.7,0.3-2.4,0.3c-1.4,0-2.7-0.3-3.9-0.9c-1.2-0.6-2.2-1.4-3.1-2.4
				c-0.9-1-1.5-2.1-2-3.4C362.1,146.6,361.9,145.3,361.9,144z"/>
			<path class="st3" d="M391.3,154.6c-1.4,0-2.8-0.3-4-0.9c-1.2-0.6-2.2-1.4-3.1-2.4c-0.9-1-1.5-2.1-2-3.4c-0.5-1.3-0.7-2.5-0.7-3.9
				c0-1.4,0.2-2.7,0.7-4c0.5-1.3,1.2-2.4,2-3.4c0.9-1,1.9-1.7,3.1-2.3c1.2-0.6,2.5-0.9,3.9-0.9c1.5,0,2.8,0.3,4,0.9
				c1.2,0.6,2.2,1.4,3.1,2.4c0.9,1,1.5,2.1,2,3.4c0.5,1.3,0.7,2.5,0.7,3.8c0,1.4-0.3,2.7-0.7,4c-0.5,1.3-1.2,2.4-2,3.3
				c-0.9,1-1.9,1.7-3.1,2.3C394,154.4,392.7,154.6,391.3,154.6z M384.2,144.1c0,1,0.2,2.1,0.5,3.1c0.3,1,0.8,1.8,1.4,2.6
				c0.6,0.8,1.4,1.4,2.2,1.8c0.9,0.4,1.8,0.7,2.9,0.7c1.1,0,2.1-0.2,3-0.7c0.9-0.5,1.6-1.1,2.2-1.9c0.6-0.8,1.1-1.6,1.4-2.6
				c0.3-1,0.5-2,0.5-2.9c0-1.1-0.2-2.1-0.5-3.1c-0.3-1-0.8-1.8-1.5-2.6c-0.6-0.8-1.4-1.3-2.2-1.8c-0.9-0.4-1.8-0.7-2.9-0.7
				c-1.1,0-2.1,0.2-3,0.7c-0.9,0.5-1.6,1.1-2.2,1.8c-0.6,0.7-1.1,1.6-1.4,2.6C384.4,142.1,384.2,143.1,384.2,144.1z"/>
			<path class="st3" d="M403.6,154.5v-3.3h2.2v3.3H403.6z"/>
		</g>
	</g>
</g>
</svg>
