<?xml version="1.0" encoding="utf-8"?>
<!-- Generator: Adobe Illustrator 24.3.0, SVG Export Plug-In . SVG Version: 6.00 Build 0)  -->
<svg version="1.1" xmlns="http://www.w3.org/2000/svg" xmlns:xlink="http://www.w3.org/1999/xlink" x="0px" y="0px"
	 viewBox="0 0 400 155" style="enable-background:new 0 0 400 155;" xml:space="preserve">
<style type="text/css">
	.st0{fill:none;}
	.st1{font-family:'FrederickatheGreat-Regular';}
	.st2{font-size:72px;}
	.st3{fill:#2D2D2D;}
</style>
<g id="Layer_3">
	
		<image style="overflow:visible;" width="5472" height="3648" xlink:href="simpleappple.jpg"  transform="matrix(4.739994e-02 0 0 5.495488e-02 166.8198 -27.3628)">
	</image>
</g>
<g id="Styles">
	<rect x="3.4" y="67.9" class="st0" width="290.3" height="76.3"/>
	<text transform="matrix(1 0 0 1 3.361 121.8719)" class="st1 st2">Styles </text>
</g>
<g id="Simple">
	<g>
		<rect y="2.5" class="st0" width="260" height="79.6"/>
		<text id="SIMPLE" transform="matrix(1 0 0 1 0 56.4218)" class="st1 st2">Simple </text>
		<g>
			<path class="st3" d="M220,152.3l8.5-20.7h2.2l8.5,20.7h-2.8l-2.4-6.1h-8.7l-2.4,6.1L220,152.3L220,152.3z M229.6,134.7l-3.8,9.6
				h7.6L229.6,134.7z"/>
			<path class="st3" d="M241.9,152.3v-20.7h8.6c0.9,0,1.8,0.2,2.5,0.6c0.8,0.4,1.4,0.9,2,1.5c0.5,0.6,1,1.3,1.3,2.1
				c0.3,0.8,0.5,1.6,0.5,2.4c0,0.9-0.2,1.7-0.4,2.5c-0.3,0.8-0.7,1.5-1.2,2.1c-0.5,0.6-1.2,1.1-1.9,1.5c-0.8,0.4-1.6,0.5-2.5,0.5
				h-6.2v7.4H241.9z M244.6,142.6h6c0.5,0,1-0.1,1.5-0.3c0.4-0.2,0.8-0.5,1.1-0.9c0.3-0.4,0.6-0.9,0.7-1.4s0.3-1.1,0.3-1.7
				c0-0.6-0.1-1.2-0.3-1.7c-0.2-0.5-0.5-1-0.8-1.4c-0.3-0.4-0.7-0.7-1.2-0.9c-0.5-0.2-0.9-0.3-1.4-0.3h-5.9L244.6,142.6L244.6,142.6
				z"/>
			<path class="st3" d="M260,152.3v-20.7h8.6c0.9,0,1.8,0.2,2.5,0.6c0.8,0.4,1.4,0.9,2,1.5c0.5,0.6,1,1.3,1.3,2.1
				c0.3,0.8,0.5,1.6,0.5,2.4c0,0.9-0.2,1.7-0.4,2.5c-0.3,0.8-0.7,1.5-1.2,2.1c-0.5,0.6-1.2,1.1-1.9,1.5c-0.8,0.4-1.6,0.5-2.5,0.5
				h-6.2v7.4H260z M262.6,142.6h6c0.5,0,1-0.1,1.5-0.3c0.4-0.2,0.8-0.5,1.1-0.9c0.3-0.4,0.6-0.9,0.7-1.4s0.3-1.1,0.3-1.7
				c0-0.6-0.1-1.2-0.3-1.7c-0.2-0.5-0.5-1-0.8-1.4c-0.3-0.4-0.7-0.7-1.2-0.9c-0.5-0.2-0.9-0.3-1.4-0.3h-5.9L262.6,142.6L262.6,142.6
				z"/>
			<path class="st3" d="M274.6,152.3l8.5-20.7h2.2l8.5,20.7h-2.8l-2.4-6.1h-8.7l-2.4,6.1L274.6,152.3L274.6,152.3z M284.2,134.7
				l-3.8,9.6h7.6L284.2,134.7z"/>
			<path class="st3" d="M296.5,152.3v-20.7h8.9c0.9,0,1.8,0.2,2.5,0.6c0.8,0.4,1.4,0.9,2,1.5c0.6,0.6,1,1.3,1.3,2.1
				c0.3,0.8,0.5,1.6,0.5,2.4c0,0.7-0.1,1.4-0.3,2.1c-0.2,0.7-0.5,1.3-0.9,1.8c-0.4,0.5-0.8,1-1.4,1.4c-0.5,0.4-1.1,0.7-1.8,0.8
				l5,7.9h-3l-4.7-7.4h-5.5v7.4H296.5z M299.1,142.6h6.3c0.5,0,1-0.1,1.5-0.4c0.4-0.2,0.8-0.6,1.1-1c0.3-0.4,0.6-0.9,0.7-1.4
				c0.2-0.5,0.3-1.1,0.3-1.6s-0.1-1.1-0.3-1.6c-0.2-0.5-0.5-1-0.8-1.4c-0.3-0.4-0.7-0.7-1.2-0.9c-0.4-0.2-0.9-0.3-1.4-0.3h-6.1
				L299.1,142.6L299.1,142.6z"/>
			<path class="st3" d="M329.9,150v2.3h-14.1v-20.7h13.8v2.3h-11.2v6.7h9.7v2.2h-9.7v7.1L329.9,150L329.9,150z"/>
			<path class="st3" d="M333.6,152.3v-20.7h2.6V150h11.5v2.3L333.6,152.3L333.6,152.3z"/>
			<path class="st3" d="M356.1,141.8c0-1.2,0.2-2.5,0.7-3.7c0.4-1.2,1.1-2.3,1.9-3.3c0.8-1,1.9-1.8,3.1-2.4c1.2-0.6,2.6-0.9,4.2-0.9
				c1.8,0,3.4,0.4,4.8,1.2c1.3,0.8,2.3,1.9,2.9,3.3l-2.1,1.3c-0.3-0.7-0.7-1.2-1.1-1.6c-0.4-0.5-0.9-0.8-1.4-1.1
				c-0.5-0.3-1-0.5-1.6-0.6c-0.5-0.1-1.1-0.2-1.6-0.2c-1.2,0-2.2,0.2-3.1,0.7c-0.9,0.5-1.6,1.1-2.2,1.9c-0.6,0.8-1.1,1.6-1.4,2.6
				c-0.3,1-0.4,1.9-0.4,2.9c0,1.1,0.2,2.1,0.5,3.1c0.4,1,0.9,1.8,1.5,2.6c0.7,0.7,1.4,1.4,2.3,1.8c0.9,0.5,1.8,0.7,2.9,0.7
				c0.5,0,1.1-0.1,1.7-0.2c0.6-0.1,1.1-0.4,1.6-0.7c0.5-0.3,1-0.7,1.5-1.1c0.4-0.4,0.8-1,1.1-1.7l2.2,1.2c-0.3,0.8-0.8,1.4-1.4,2
				c-0.6,0.6-1.3,1.1-2,1.5c-0.7,0.4-1.5,0.7-2.4,0.9c-0.8,0.2-1.7,0.3-2.4,0.3c-1.4,0-2.7-0.3-3.9-0.9c-1.2-0.6-2.2-1.4-3.1-2.4
				c-0.9-1-1.5-2.1-2-3.4C356.3,144.5,356.1,143.2,356.1,141.8z"/>
			<path class="st3" d="M385.5,152.5c-1.4,0-2.8-0.3-4-0.9c-1.2-0.6-2.2-1.4-3.1-2.4c-0.9-1-1.5-2.1-2-3.4c-0.5-1.3-0.7-2.5-0.7-3.9
				c0-1.4,0.2-2.7,0.7-4c0.5-1.3,1.2-2.4,2-3.4c0.9-1,1.9-1.7,3.1-2.3c1.2-0.6,2.5-0.9,3.9-0.9c1.5,0,2.8,0.3,4,0.9
				c1.2,0.6,2.2,1.4,3.1,2.4c0.9,1,1.5,2.1,2,3.4c0.5,1.3,0.7,2.5,0.7,3.8c0,1.4-0.3,2.7-0.7,4c-0.5,1.3-1.2,2.4-2,3.3
				c-0.9,1-1.9,1.7-3.1,2.3C388.2,152.2,386.9,152.5,385.5,152.5z M378.4,142c0,1,0.2,2.1,0.5,3.1c0.3,1,0.8,1.8,1.4,2.6
				c0.6,0.8,1.4,1.4,2.2,1.8c0.9,0.4,1.8,0.7,2.9,0.7c1.1,0,2.1-0.2,3-0.7c0.9-0.5,1.6-1.1,2.2-1.9c0.6-0.8,1.1-1.6,1.4-2.6
				c0.3-1,0.5-2,0.5-2.9c0-1.1-0.2-2.1-0.5-3.1c-0.3-1-0.8-1.8-1.5-2.6c-0.6-0.8-1.4-1.3-2.2-1.8c-0.9-0.4-1.8-0.7-2.9-0.7
				c-1.1,0-2.1,0.2-3,0.7c-0.9,0.5-1.6,1.1-2.2,1.8c-0.6,0.7-1.1,1.6-1.4,2.6C378.6,140,378.4,141,378.4,142z"/>
			<path class="st3" d="M397.8,152.3v-3.3h2.2v3.3H397.8z"/>
		</g>
	</g>
</g>
</svg>
